<?xml version="1.0" encoding="UTF-8" standalone="no"?>
<!-- Generator: Adobe Illustrator 23.0.0, SVG Export Plug-In . SVG Version: 6.00 Build 0)  -->

<svg
   xmlns:dc="http://purl.org/dc/elements/1.1/"
   xmlns:cc="http://creativecommons.org/ns#"
   xmlns:rdf="http://www.w3.org/1999/02/22-rdf-syntax-ns#"
   xmlns:svg="http://www.w3.org/2000/svg"
   xmlns="http://www.w3.org/2000/svg"
   xmlns:sodipodi="http://sodipodi.sourceforge.net/DTD/sodipodi-0.dtd"
   xmlns:inkscape="http://www.inkscape.org/namespaces/inkscape"
   version="1.1"
   id="图层_1"
   x="0px"
   y="0px"
   viewBox="0 0 1493.626 494.60699"
   xml:space="preserve"
   sodipodi:docname="Actas Logo From 2019.svg"
   inkscape:version="0.92.4 (5da689c313, 2019-01-14)"
   width="1493.626"
   height="494.60699"><title
   id="title7773">Actas Logo From 2019</title><metadata
   id="metadata4612"><rdf:RDF><cc:Work
       rdf:about=""><dc:format>image/svg+xml</dc:format><dc:type
         rdf:resource="http://purl.org/dc/dcmitype/StillImage" /><dc:title>Actas Logo From 2019</dc:title><cc:license
         rdf:resource="" /><dc:date>2019-05-13</dc:date><dc:creator><cc:Agent><dc:title>HFWMan</dc:title></cc:Agent></dc:creator><dc:rights><cc:Agent><dc:title /></cc:Agent></dc:rights><dc:publisher><cc:Agent><dc:title>Actas Inc.</dc:title></cc:Agent></dc:publisher></cc:Work></rdf:RDF></metadata><defs
   id="defs4610" /><sodipodi:namedview
   pagecolor="#ffffff"
   bordercolor="#666666"
   borderopacity="1"
   objecttolerance="10"
   gridtolerance="10"
   guidetolerance="10"
   inkscape:pageopacity="0"
   inkscape:pageshadow="2"
   inkscape:window-width="1920"
   inkscape:window-height="1017"
   id="namedview4608"
   showgrid="false"
   inkscape:zoom="1.4142136"
   inkscape:cx="131.153"
   inkscape:cy="342.74442"
   inkscape:window-x="-8"
   inkscape:window-y="-8"
   inkscape:window-maximized="1"
   inkscape:current-layer="g4667" />
<style
   type="text/css"
   id="style4566">
	.st0{fill:#FF9900;}
	.st1{fill:none;stroke:#000000;stroke-width:12;stroke-linecap:round;stroke-linejoin:round;}
	.st2{fill:none;stroke:#000000;stroke-width:10;stroke-linecap:round;stroke-linejoin:round;}
	.st3{fill:#00CCFF;}
</style>

















<g
   id="g5137"
   transform="matrix(1.7790027,0,0,1.7790027,-29.115767,-58.684759)"><g
     style="fill:#000000;fill-opacity:1"
     transform="translate(18.273942,30.849768)"
     id="g4690"><g
       style="fill:#000000;fill-opacity:1"
       id="_x3C_路径_x3E__3_"
       transform="matrix(1.7200545,0,0,1.7200545,-323.74913,-246.17401)"><path
         class="st3"
         d="m 360.4,286.4 c -1.6,2 -2.5,4.7 -2.5,8.3 0,3.7 1,6.5 3.1,8.5 1.7,1.5 3.8,2.3 6.3,2.3 1.2,0 2.3,-0.2 3.3,-0.6 1.2,-0.5 2.3,-1.3 3.3,-2.3 1.3,-1.4 1.9,-2.8 1.9,-4.3 0,-1.7 -1.2,-2.6 -3.5,-2.6 -0.2,0 -0.3,0 -0.4,0.1 0,0.3 0.1,0.5 0.1,0.7 0,1.2 -0.6,2.2 -1.7,3 -0.9,0.7 -1.7,1 -2.6,1 -1.3,0 -2.4,-0.5 -3.2,-1.5 -0.9,-1.1 -1.4,-2.5 -1.4,-4.4 0,-3.8 1.4,-5.8 4.3,-5.8 0.9,0 1.8,0.4 2.9,1.1 1.1,0.7 1.7,1 1.9,1 0.5,0 1,-0.3 1.5,-0.9 0.4,-0.6 0.6,-1.3 0.6,-2.1 0,-1.7 -1.1,-2.9 -3.4,-3.6 -1.4,-0.4 -2.9,-0.7 -4.5,-0.7 -2.5,0.2 -4.5,1.1 -6,2.8 z"
         id="path4581"
         inkscape:connector-curvature="0"
         style="fill:#000000;fill-opacity:1" /></g><path
       class="st3"
       d="m 333.63966,277.23859 c 1.20403,-1.20404 1.72005,-2.75209 1.72005,-4.81616 0,-1.37604 -0.51602,-2.75208 -1.37604,-4.12813 -1.20404,-1.54805 -2.58009,-2.23607 -4.30014,-2.23607 -1.89206,0 -3.44011,0.86003 -4.30014,2.40808 -0.68802,1.37604 -0.86002,2.75209 -0.86002,4.12813 0,2.06407 0.51601,3.78412 1.72005,4.98816 1.03203,1.03203 2.23607,1.54805 3.44011,1.54805 1.72005,0 2.92409,-0.68802 3.95613,-1.89206 z"
       id="path4584"
       inkscape:connector-curvature="0"
       style="fill:#000000;fill-opacity:1;stroke-width:1.72005451" /><g
       style="fill:#000000;fill-opacity:1"
       id="_x3C_路径_x3E__4_"
       transform="matrix(1.7200545,0,0,1.7200545,-323.54903,-246.17401)"><path
         class="st3"
         d="m 338,287.2 c 0,0.9 0.1,1.6 0.1,2.1 v 10 c 0,2.3 -0.1,3.8 -0.4,4.4 0,0.6 0.4,1.2 1.1,1.7 0.6,0.4 1.1,0.6 1.6,0.6 0.6,0 1.2,-0.2 1.8,-0.6 0.6,-0.5 0.9,-1.1 0.9,-1.9 l 0.1,-10.4 c 0,-1 0.6,-1.9 1.9,-2.7 1,-0.8 1.9,-1.2 2.5,-1.2 1,0 1.7,0.5 2.3,1.5 0.4,0.9 0.7,2.1 0.7,3.7 l 0.1,7.5 c 0,2.6 0.8,4 2.4,4 0.8,0 1.7,-0.6 2.7,-1.9 1,-1.3 1.5,-2.5 1.5,-3.7 -0.8,-0.6 -1.3,-1.5 -1.6,-2.8 -0.2,-0.9 -0.4,-2.2 -0.4,-3.9 0,-2.4 0,-4 -0.1,-4.7 -0.2,-1.7 -0.7,-3 -1.5,-3.8 -1.1,-1.1 -2.7,-1.6 -4.9,-1.6 -2,0 -3.7,0.6 -5.1,1.7 -0.5,-0.8 -1,-1.3 -1.5,-1.4 -0.4,-0.2 -1,-0.3 -1.8,-0.3 -1.7,0 -2.5,0.5 -2.5,1.5 0.1,0.5 0.1,1.2 0.1,2.2 z"
         id="path4586"
         inkscape:connector-curvature="0"
         style="fill:#000000;fill-opacity:1" /></g><g
       style="fill:#000000;fill-opacity:1"
       id="_x3C_路径_x3E__6_"
       transform="matrix(1.7200545,0,0,1.7200545,-322.5495,-246.17401)"><path
         class="st3"
         d="m 334.9,290.6 c 0.1,-4.8 0.2,-8.4 0.2,-10.9 0,-1.6 -1.2,-2.4 -3.7,-2.4 -2.3,0 -3.5,0.8 -3.5,2.4 0,2.5 0,6.2 0.1,11.1 0,5 0,8.6 0,11 0,2.5 1.2,3.7 3.5,3.7 2.2,0 3.3,-1.3 3.3,-4 0,-2.3 0,-6 0.1,-10.9 z"
         id="path4589"
         inkscape:connector-curvature="0"
         style="fill:#000000;fill-opacity:1" /></g><g
       style="fill:#000000;fill-opacity:1"
       id="_x3C_路径_x3E__5_"
       transform="matrix(1.7200545,0,0,1.7200545,-321.94955,-246.17401)"><path
         class="st3"
         d="m 303,292 c -1.6,-0.5 -2.4,-1.2 -2.4,-2.2 0,-0.7 0.3,-1.1 0.9,-1.3 0.2,-0.1 0.7,-0.1 1.5,-0.1 1.2,0 2.7,0.5 4.6,1.4 1.7,0.8 2.6,1.2 2.8,1.2 0.4,0 0.8,-0.3 1.3,-0.9 0.5,-0.6 0.8,-1.4 0.8,-2.2 0,-1.2 -1.1,-2.2 -3.4,-3.1 -2.3,-0.8 -5.1,-1.3 -8.4,-1.3 -4.9,0 -7.4,1.9 -7.4,5.6 0,1.9 0.6,3.3 1.7,4.3 0.9,0.9 2.3,1.5 4,1.8 2.1,0.5 3.7,0.8 4.7,1 1.5,0.4 2.3,1.1 2.3,1.9 0,1.4 -1.2,2.1 -3.5,2.1 -3.6,0 -5.6,-1.1 -6,-3.3 -1,0.2 -1.9,0.6 -2.7,1.2 -1.1,0.9 -1.6,2 -1.6,3.4 0,2.5 3.6,3.8 10.8,3.8 7.2,0 10.9,-2.1 10.9,-6.5 0,-2.8 -2.1,-4.7 -6.3,-5.8 -2,-0.5 -3.6,-0.8 -4.6,-1 z"
         id="path4592"
         inkscape:connector-curvature="0"
         style="fill:#000000;fill-opacity:1" /></g><g
       style="fill:#000000;fill-opacity:1"
       id="_x3C_路径_x3E__7_"
       transform="matrix(1.7200545,0,0,1.7200545,-321.2492,-246.67363)"><path
         class="st3"
         d="m 270,287 c -1.8,2.1 -2.7,4.9 -2.7,8.4 0,3.1 1,5.5 2.9,7.3 1.7,1.6 3.9,2.4 6.4,2.4 3,0 5.5,-1.4 7.7,-4.3 0.1,1.3 0.3,2.2 0.4,2.6 0.3,1 0.9,1.5 1.6,1.5 1,0 2,-0.5 3,-1.5 0.8,-0.9 1.5,-2 2,-3.1 -1,-1.5 -1.6,-3.1 -2,-4.6 -0.3,-1.2 -0.4,-2.9 -0.4,-5.1 0,-2.1 0,-3.6 0.1,-4.5 l 0.3,-1.3 c 0,-0.4 -0.5,-0.7 -1.4,-1 -0.7,-0.2 -1.3,-0.3 -1.9,-0.3 -0.7,0 -1.2,0.1 -1.5,0.3 -0.7,0.2 -1,1.1 -1.1,2.5 -2.2,-1.4 -4.4,-2.1 -6.4,-2.1 -3,0 -5.3,0.9 -7,2.8 m 13.4,4.5 v 5.3 c -1.7,1.9 -3.5,2.9 -5.5,2.9 -1.4,0 -2.5,-0.4 -3.4,-1.2 -1,-0.9 -1.5,-2.2 -1.5,-3.9 0,-1.6 0.5,-2.9 1.5,-3.9 0.9,-1 2,-1.5 3.3,-1.5 2,0.1 3.9,0.8 5.6,2.3 z"
         id="path4595"
         inkscape:connector-curvature="0"
         style="fill:#000000;fill-opacity:1" /></g><g
       style="fill:#000000;fill-opacity:1"
       id="_x3C_路径_x3E__8_"
       transform="matrix(1.7200545,0,0,1.7200545,-320.14884,-246.77365)"><path
         class="st3"
         d="m 256.1,280.7 c 0,-1.4 -0.9,-2.2 -2.8,-2.2 -2.1,0 -3.2,0.7 -3.2,2.1 0,0.6 0.1,1.7 0.1,3.3 -2.2,0.1 -4,0.2 -5.4,0.4 -0.6,0.1 -1.2,0.4 -1.7,0.9 -0.5,0.5 -0.7,1.2 -0.7,2 0,0.9 0.2,1.8 0.5,2.5 0.4,0.8 0.9,1.3 1.7,1.3 0.3,0 0.9,-0.1 1.7,-0.4 0.9,-0.3 2.2,-0.5 3.8,-0.7 -0.3,8.1 -0.5,12.5 -0.5,13.2 0,1.6 0.9,2.4 2.8,2.4 1.5,0 3.6,-0.5 6.3,-1.4 3.2,-1.1 4.8,-2.3 4.8,-3.5 0,-0.4 -0.1,-0.9 -0.5,-1.4 -0.3,-0.5 -0.7,-0.8 -1,-0.8 -0.4,0 -1.2,0.3 -2.4,0.8 -1.2,0.5 -2.1,0.7 -2.8,0.7 -0.8,0 -1.2,-0.6 -1.1,-2 0,-0.7 0,-1.8 0,-3.2 0.1,-1.4 0.1,-2.5 0.1,-3.3 v -1.6 c 1.6,0.2 3.3,0.4 5,0.8 1.2,0.3 1.9,0.4 2.3,0.4 0.9,0 1.5,-0.7 2,-2.2 0.4,-1.1 0.5,-2.3 0.5,-3.5 0,-0.3 -0.1,-0.5 -0.3,-0.6 -3.2,-0.2 -6.3,-0.4 -9.2,-0.5 0,-2.3 0,-3.5 0,-3.5 z"
         id="path4598"
         inkscape:connector-curvature="0"
         style="fill:#000000;fill-opacity:1" /></g><g
       style="fill:#000000;fill-opacity:1"
       id="_x3C_路径_x3E__9_"
       transform="matrix(1.7200545,0,0,1.7200545,-319.34957,-246.47362)"><path
         class="st3"
         d="m 222.3,285.8 c -2.1,2 -3.1,4.7 -3.1,8.3 0,3.7 1.2,6.6 3.8,8.5 2.1,1.5 4.8,2.3 7.9,2.3 1.5,0 2.8,-0.2 4.1,-0.6 1.5,-0.5 2.9,-1.3 4.2,-2.3 1.6,-1.4 2.4,-2.8 2.4,-4.3 0,-1.7 -1.5,-2.6 -4.6,-2.6 -0.2,0 -0.4,0 -0.4,0.1 0.1,0.3 0.1,0.5 0.1,0.7 0,1.2 -0.7,2.2 -2.1,3 -1.1,0.7 -2.3,1 -3.4,1 -1.6,0 -2.9,-0.5 -3.9,-1.5 -1.2,-1.1 -1.8,-2.5 -1.8,-4.4 0,-3.8 1.8,-5.8 5.4,-5.8 1.1,0 2.3,0.4 3.7,1.1 1.3,0.7 2.1,1 2.3,1 0.7,0 1.3,-0.3 1.8,-0.9 0.5,-0.6 0.8,-1.3 0.8,-2.1 0,-1.7 -1.4,-2.9 -4.1,-3.6 -1.7,-0.4 -3.7,-0.6 -5.8,-0.6 -3,0.1 -5.5,1 -7.3,2.7 z"
         id="path4601"
         inkscape:connector-curvature="0"
         style="fill:#000000;fill-opacity:1" /></g><g
       style="fill:#000000;fill-opacity:1"
       id="_x3C_路径_x3E__10_"
       transform="matrix(1.7200545,0,0,1.7200545,-318.4492,-246.27365)"><path
         class="st3"
         d="m 191.1,294.1 c -0.4,0 -0.8,-0.2 -1.3,-0.6 -1.2,2.6 -1.8,5.4 -1.8,8.5 0,2.2 1,3.3 3.1,3.3 1.5,0 3.4,-1.8 5.6,-5.3 3.1,-0.3 5.1,-0.5 6.1,-0.5 1.7,0 3.5,0.1 5.5,0.3 0.8,2.3 1.5,3.8 2.1,4.5 0.5,0.8 1.1,1.1 1.9,1.1 1.4,0 2.6,-0.8 3.7,-2.4 0.8,-1.2 1.3,-2.4 1.6,-3.6 -2,-1.8 -4.3,-5.2 -6.9,-10.3 -2.2,-4.1 -3.4,-6.9 -3.8,-8.5 -0.5,-1.6 -0.9,-2.6 -1.4,-3 -0.4,-0.3 -1.3,-0.5 -2.9,-0.5 -1.6,0 -2.6,0.3 -3.1,0.8 -0.4,0.9 -0.7,1.6 -0.8,2.1 -0.5,2.5 -1.4,5.2 -2.8,8.1 -1.7,4 -3.3,6 -4.8,6 m 12,-9.2 3,8.6 c -1.7,-0.1 -2.8,-0.1 -3.3,-0.1 -0.5,0 -1.4,0 -2.8,0.1 1.4,-3.7 2.4,-6.6 3.1,-8.6 z"
         id="path4604"
         inkscape:connector-curvature="0"
         style="fill:#000000;fill-opacity:1" /></g></g><g
     id="g4709"
     transform="translate(16.434313,32.849768)"><path
       class="st0"
       d="m 55.576661,171.43145 c 3.0961,-3.0961 6.70821,-4.64415 11.00835,-4.64415 4.30013,0 7.91225,1.54805 11.00835,4.64415 2.06406,2.06406 3.44011,4.30013 4.12813,6.70821 l 22.188709,-2.06407 c -1.20405,-7.74024 -4.816159,-14.62046 -10.492339,-20.46865 -7.39624,-7.39623 -16.34052,-11.00834 -26.83285,-11.00834 -10.49233,0 -19.43662,3.61211 -26.83285,11.00834 -7.39624,7.39624 -11.00835,16.34052 -11.00835,26.83286 0,10.49233 3.78412,19.43661 11.00835,26.83285 7.39623,7.39623 16.34052,11.00835 26.83285,11.00835 10.49233,0 19.43661,-3.61212 26.83285,-11.00835 7.224229,-7.22423 11.008359,-15.99651 11.008359,-26.31684 H 82.237501 c -0.172,4.12813 -1.72005,7.56824 -4.64414,10.49233 -3.0961,3.0961 -6.70822,4.64415 -11.00835,4.64415 -4.30014,0 -8.08426,-1.54805 -11.00835,-4.64415 -3.0961,-3.09609 -4.64415,-6.70821 -4.64415,-11.00834 0,-4.30014 1.54805,-7.91226 4.64415,-11.00835 z"
       id="path4568"
       inkscape:connector-curvature="0"
       style="fill:#000000;fill-opacity:1;stroke-width:1.72005451" /><path
       inkscape:connector-curvature="0"
       id="path4570"
       d="m 181.91992,147.30405 c -8.49511,0 -15.97143,2.71743 -22.25781,8.1543 -6.28639,5.43686 -9.34375,12.06339 -9.34375,19.70898 V 219.681 h 25.6543 v -17.5 h 14.61132 v -18.17773 h -14.61132 v -5.60742 c 0,-2.71844 0.84983,-5.09787 2.71875,-6.9668 2.03882,-2.03882 4.24834,-3.0586 6.79687,-3.0586 h 6.79492 c 2.54853,0 4.75803,1.01975 6.62696,2.88868 1.86892,1.86892 2.71875,4.24835 2.71875,6.96679 v 1.53516 16.98437 22.76563 0.16992 h 20.54296 2.24415 1.69726 1.16992 0.33985 v -0.16992 -27.32227 -17.02148 c 0,-7.64559 -3.05736,-14.1022 -9.34375,-19.70898 -6.11648,-5.43687 -13.59281,-8.1543 -22.25782,-8.1543 z"
       style="fill:#000000;fill-opacity:1;stroke-width:1.69902289" /><path
       id="_x3C_路径_x3E_"
       class="st2"
       d="m 8.5331659,210.50047 v -83.07863 -5.84819 h 0.17201 C 10.425226,91.644699 22.121596,65.671877 43.794286,43.99919 67.359036,20.434442 95.911936,8.7380714 129.281,8.7380714 c 33.36906,0 61.92197,11.6963706 85.31471,35.2611186 21.67268,21.672687 33.54106,47.645509 35.26112,77.57446 h 0.172 v 5.84819 83.07863 m 0,-89.09882 c 0.17201,1.89206 0.17201,3.95612 0.17201,5.84818 M 8.5331659,127.42184 c 0,-2.06407 0.17201,-3.95613 0.17201,-5.84819"
       inkscape:connector-curvature="0"
       style="fill:none;stroke:#000000;stroke-width:17.20054626;stroke-linecap:round;stroke-linejoin:round;stroke-opacity:1" /><path
       class="st0"
       d="m 329.04715,141.48651 c -0.51602,-2.40808 -3.78412,-3.61211 -9.63231,-3.61211 -6.02019,0 -11.69637,0 -17.20054,0.172 -5.50418,0.34401 -10.66434,1.37605 -15.13648,3.0961 -4.47214,1.89206 -8.08426,5.33217 -10.49234,10.49233 -2.58008,5.16017 -3.78412,9.63231 -3.61211,13.76044 0,4.12813 0.86003,7.39623 2.58008,10.14832 1.54805,2.58008 4.47214,5.16016 8.42827,7.39624 4.12813,2.23607 7.39623,3.95612 10.32033,4.81615 2.75208,0.86003 4.81615,2.06406 5.84818,3.2681 1.20404,1.20404 1.54805,2.75209 1.37605,4.30014 -0.17201,1.72005 -1.20404,2.58008 -2.75209,2.92409 -1.54805,0.34401 -2.75209,0.51602 -3.95613,0.51602 -1.03203,0 -12.21238,0.34401 -33.36906,0.86002 V 219.921 h 36.80917 c 7.05223,-0.34401 11.86838,-1.37605 14.62047,-3.44011 2.58008,-1.89206 4.64414,-4.12813 5.84818,-6.88022 1.37605,-2.58008 2.40808,-5.50417 3.0961,-8.60027 0.68802,-3.0961 0.86003,-7.74025 0.34401,-13.76044 -0.51602,-6.02019 -3.78412,-9.97631 -9.97632,-12.04038 -6.02019,-2.06407 -10.14832,-3.44011 -12.21238,-4.12813 -2.06407,-0.86003 -3.26811,-2.58008 -3.61212,-5.16016 -0.34401,-2.58009 0,-4.98816 1.03203,-6.88022 1.20404,-1.89206 3.95613,-2.9241 8.77228,-3.0961 4.64415,-0.17201 8.08426,-0.17201 10.14833,-0.17201 2.23607,0 4.47214,0 6.5362,0 2.06407,0 3.78412,-0.86002 4.81616,-2.23607 1.03203,-1.37604 1.72005,-2.92409 1.89206,-4.98816 0.172,-2.40807 0,-4.64414 -0.51602,-7.05222 z"
       id="path4578"
       inkscape:connector-curvature="0"
       style="fill:#000000;fill-opacity:1;stroke-width:1.72005451" /><g
       id="g4667"
       style="fill:none;stroke:#000000;stroke-opacity:1"><path
         style="fill:none;stroke:#000000;stroke-width:20.64077812;stroke-linecap:round;stroke-linejoin:round;stroke-opacity:1;stroke-miterlimit:4;stroke-dasharray:none"
         inkscape:connector-curvature="0"
         d="M 31.237886,130.86195 H 227.84013"
         class="st1"
         id="_x3C_路径_x3E__2_" /><path
         style="fill:#000000;stroke:#000000;stroke-width:20.6407795;stroke-linecap:round;stroke-linejoin:round;stroke-miterlimit:4;stroke-dasharray:none;stroke-opacity:1"
         inkscape:connector-curvature="0"
         d="M 129.53913,210.50042 V 130.9489"
         class="st1"
         id="_x3C_路径_x3E__1_" /></g><g
       style="fill:#000000;fill-opacity:1"
       id="g4663"
       transform="translate(0.34350477)"><circle
         r="14.0185"
         cy="75.046501"
         cx="191.28951"
         id="path4614"
         style="opacity:1;vector-effect:none;fill:#000000;fill-opacity:1;stroke:none;stroke-width:1.69785929;stroke-linecap:square;stroke-linejoin:miter;stroke-miterlimit:4;stroke-dasharray:none;stroke-dashoffset:0;stroke-opacity:1;paint-order:normal" /><circle
         r="14.0185"
         cy="75.046501"
         cx="67.101501"
         id="path4614-7"
         style="opacity:1;vector-effect:none;fill:#000000;fill-opacity:1;stroke:none;stroke-width:1.69785929;stroke-linecap:square;stroke-linejoin:miter;stroke-miterlimit:4;stroke-dasharray:none;stroke-dashoffset:0;stroke-opacity:1;paint-order:normal" /></g></g></g><g
   id="g7744"
   style="fill:#dde9af"
   transform="matrix(2.4613057,0,0,2.4613057,-1475.7015,-282.51121)"><path
     id="path7146"
     d="m 947.65738,240.79399 c 0,2.976 -0.855,5.346 -2.564,7.108 -1.765,1.765 -4.135,2.646 -7.112,2.646 h -26.546 v 14.052 c 0,4.298 -1.213,7.659 -3.639,10.084 -2.427,2.48 -5.789,3.72 -10.089,3.72 h -22.659 v -11.242 h 17.863 c 1.929,0 3.474,-0.605 4.631,-1.818 1.212,-1.323 1.819,-2.894 1.819,-4.712 v -39.015 h 12.074 v 17.854 h 20.178 c 2.646,0 3.97,-1.294 3.97,-3.885 v -18.515 h -60.948 v -10.994 h 73.022 z"
     inkscape:connector-curvature="0"
     style="fill:#000000;fill-opacity:1" /><path
     id="path7148"
     d="m 1033.578,225.33599 -13.479,42.321 c -1.379,4.187 -3.337,7.108 -5.872,8.762 -1.984,1.377 -4.796,2.066 -8.435,2.066 h -40.2741 v -11.075 h 34.7331 c 5.016,0 8.187,-2.149 9.51,-6.447 l 11.412,-36.04 h -39.1981 l -5.127,14.383 c -1.71,5.125 -4.825,7.687 -9.346,7.687 h -7.773 v -11.241 h 2.646 c 2.039,0 3.391,-1.046 4.053,-3.141 l 10.172,-30.005 h 13.065 l -3.969,11.159 h 47.8821 z"
     inkscape:connector-curvature="0"
     style="fill:#000000;fill-opacity:1" /><path
     id="path7150"
     d="m 1119.897,225.25399 -13.479,42.404 c -1.379,4.187 -3.337,7.108 -5.872,8.762 -1.984,1.377 -4.796,2.066 -8.435,2.066 h -40.274 v -11.076 h 34.733 c 5.016,0 8.187,-2.149 9.51,-6.447 l 0.91,-2.976 h -9.841 c -3.529,0 -6.037,-0.303 -7.526,-0.91 -2.096,-0.88 -3.997,-2.754 -5.706,-5.62 l -9.262,-16.036 -1.488,3.885 c -1.71,5.125 -4.825,7.687 -9.345,7.687 h -7.774 v -11.241 h 2.646 c 2.039,0 3.391,-1.046 4.053,-3.141 l 10.172,-30.005 h 13.065 l -3.969,11.159 h 47.882 z m -12.405,-0.331 h -39.198 l -2.895,8.266 h 11.495 l 6.533,10.746 c 1.157,1.93 3.114,2.893 5.871,2.893 h 11.247 z"
     inkscape:connector-curvature="0"
     style="fill:#000000;fill-opacity:1" /><path
     id="path7152"
     d="m 1206.4023,278.48599 h -4.797 c -2.812,0 -4.907,-0.221 -6.284,-0.661 -2.262,-0.827 -4.301,-2.453 -6.12,-4.877 l -17.118,-23.145 -11.908,20.665 c -1.654,2.92 -3.502,4.903 -5.541,5.951 -1.985,1.102 -4.631,1.653 -7.939,1.653 h -16.126 v -11.158 h 11.743 c 3.804,0 6.45,-1.24 7.939,-3.72 l 27.621,-47.694 h -43.417 v -10.994 h 57.476 v 10.663 l -13.48,23.475 19.765,26.203 c 1.378,1.818 3.501,2.728 6.368,2.728 h 1.819 v 10.911 z"
     inkscape:connector-curvature="0"
     style="fill:#000000;fill-opacity:1" /></g></svg>