<?xml version="1.0" encoding="UTF-8" standalone="no"?>
<svg
   xmlns:dc="http://purl.org/dc/elements/1.1/"
   xmlns:cc="http://creativecommons.org/ns#"
   xmlns:rdf="http://www.w3.org/1999/02/22-rdf-syntax-ns#"
   xmlns:svg="http://www.w3.org/2000/svg"
   xmlns="http://www.w3.org/2000/svg"
   xmlns:sodipodi="http://sodipodi.sourceforge.net/DTD/sodipodi-0.dtd"
   xmlns:inkscape="http://www.inkscape.org/namespaces/inkscape"
   version="1.1"
   id="レイヤー_1"
   x="0px"
   y="0px"
   width="129.56317"
   height="154.455"
   viewBox="0 0 129.56318 154.45501"
   enable-background="new 0 0 299.123 227.193"
   xml:space="preserve"
   sodipodi:docname="Asahi Production  logo.svg"
   inkscape:version="1.0.1 (3bc2e813f5, 2020-09-07)"><metadata
   id="metadata106"><rdf:RDF><cc:Work
       rdf:about=""><dc:format>image/svg+xml</dc:format><dc:type
         rdf:resource="http://purl.org/dc/dcmitype/StillImage" /><dc:title></dc:title></cc:Work></rdf:RDF></metadata><defs
   id="defs104" /><sodipodi:namedview
   pagecolor="#ffffff"
   bordercolor="#666666"
   borderopacity="1"
   objecttolerance="10"
   gridtolerance="10"
   guidetolerance="10"
   inkscape:pageopacity="0"
   inkscape:pageshadow="2"
   inkscape:window-width="1600"
   inkscape:window-height="837"
   id="namedview102"
   showgrid="false"
   inkscape:lockguides="false"
   inkscape:zoom="2.8477991"
   inkscape:cx="63.307666"
   inkscape:cy="58.932485"
   inkscape:window-x="-8"
   inkscape:window-y="-8"
   inkscape:window-maximized="1"
   inkscape:current-layer="レイヤー_1"
   fit-margin-top="0"
   fit-margin-left="0"
   fit-margin-right="0"
   fit-margin-bottom="0" />

<g
   id="g99"
   transform="translate(-86.253827,-35.702)">
	<path
   fill="#e60012"
   d="m 151.166,35.702 c -33.788,0 -61.181,21.773 -61.181,48.633 0,23.952 21.799,43.848 50.488,47.871 -2.128,-2.421 -3.425,-5.564 -3.425,-9.013 0,-7.639 6.32,-13.831 14.114,-13.831 7.802,0 14.124,6.192 14.124,13.831 0,3.448 -1.296,6.592 -3.426,9.01 28.691,-4.021 50.487,-23.916 50.487,-47.868 0.001,-26.86 -27.389,-48.633 -61.181,-48.633 z m -0.003,63.925 c -10.026,0 -18.157,-20.994 -18.157,-36.389 0,-15.399 8.131,-19.37 18.157,-19.37 10.031,0 18.165,3.971 18.165,19.37 0,15.395 -8.135,36.389 -18.165,36.389 z"
   id="path61" />
	<g
   id="g97">
		<g
   id="g83">
			<path
   fill="#999a9b"
   d="m 138.654,189.959 h -3.043 c -0.613,0 -1.103,-0.492 -1.103,-1.106 v -7.714 c 0,-0.61 0.489,-1.106 1.103,-1.106 h 3.043 c 2.706,0 4.523,2.602 4.523,5.031 0.001,2.697 -2.032,4.895 -4.523,4.895 z m -1.941,-2.21 h 1.941 c 1.429,0 2.315,-1.393 2.315,-2.685 0,-1.333 -0.954,-2.82 -2.315,-2.82 h -1.941 z"
   id="path63" />
			<path
   fill="#999a9b"
   d="m 171.544,180.033 h -6.619 c -0.611,0 -1.104,0.496 -1.104,1.106 0,0.606 0.493,1.104 1.104,1.104 h 2.203 v 6.646 c 0,0.607 0.493,1.103 1.106,1.103 0.608,0 1.104,-0.495 1.104,-1.103 v -6.646 h 2.207 c 0.61,0 1.105,-0.498 1.105,-1.104 -0.001,-0.61 -0.496,-1.106 -1.106,-1.106 z"
   id="path65" />
			<path
   fill="#999a9b"
   d="m 174.771,189.992 c -0.61,0 -1.105,-0.495 -1.105,-1.103 v -7.795 c 0,-0.609 0.495,-1.104 1.105,-1.104 0.608,0 1.104,0.495 1.104,1.104 v 7.795 c 0.001,0.608 -0.495,1.103 -1.104,1.103 z"
   id="path67" />
			<path
   fill="#999a9b"
   d="m 195.92,189.992 c -0.327,0 -0.643,-0.142 -0.857,-0.404 l -4.343,-5.342 v 4.644 c 0,0.607 -0.495,1.103 -1.106,1.103 -0.609,0 -1.104,-0.495 -1.104,-1.103 v -7.75 c 0,-0.469 0.295,-0.884 0.736,-1.044 0.438,-0.157 0.93,-0.018 1.225,0.344 l 4.344,5.338 v -4.638 c 0,-0.61 0.496,-1.106 1.105,-1.106 0.607,0 1.104,0.496 1.104,1.106 v 7.75 c 0,0.468 -0.293,0.882 -0.733,1.041 -0.122,0.043 -0.248,0.061 -0.371,0.061 z"
   id="path69" />
			<path
   fill="#999a9b"
   d="m 128.259,190.115 c -2.843,0 -5.156,-2.293 -5.156,-5.112 0,-2.815 2.313,-5.109 5.156,-5.109 2.841,0 5.153,2.294 5.153,5.109 0,2.819 -2.312,5.112 -5.153,5.112 z m 0,-8.013 c -1.625,0 -2.947,1.303 -2.947,2.9 0,1.603 1.322,2.9 2.947,2.9 1.625,0 2.946,-1.298 2.946,-2.9 0,-1.597 -1.321,-2.9 -2.946,-2.9 z"
   id="path71" />
			<path
   fill="#999a9b"
   d="m 182.264,190.115 c -2.846,0 -5.156,-2.293 -5.156,-5.112 0,-2.815 2.311,-5.109 5.156,-5.109 2.845,0 5.158,2.294 5.158,5.109 0,2.819 -2.314,5.112 -5.158,5.112 z m 0,-8.013 c -1.622,0 -2.946,1.303 -2.946,2.9 0,1.603 1.324,2.9 2.946,2.9 1.625,0 2.948,-1.298 2.948,-2.9 0,-1.597 -1.323,-2.9 -2.948,-2.9 z"
   id="path73" />
			<path
   fill="#999a9b"
   d="m 159.004,190.103 c -2.812,0 -5.1,-2.285 -5.1,-5.101 0,-2.812 2.288,-5.099 5.1,-5.099 1.553,0 3.001,0.696 3.974,1.913 0.387,0.479 0.311,1.169 -0.163,1.555 -0.479,0.382 -1.174,0.305 -1.557,-0.17 -0.553,-0.689 -1.378,-1.087 -2.255,-1.087 -1.592,0 -2.888,1.297 -2.888,2.888 0,1.594 1.296,2.887 2.888,2.887 0.882,0 1.702,-0.391 2.253,-1.078 0.382,-0.479 1.076,-0.556 1.551,-0.175 0.478,0.379 0.556,1.075 0.169,1.553 -0.969,1.219 -2.417,1.914 -3.972,1.914 z"
   id="path75" />
			<path
   fill="#999a9b"
   d="m 148.532,190.157 c -2.377,0 -4.236,-1.812 -4.236,-4.117 v -4.9 c 0,-0.61 0.495,-1.106 1.105,-1.106 0.609,0 1.105,0.496 1.105,1.106 v 4.9 c 0,1.067 0.89,1.906 2.025,1.906 0.482,0 2.062,-0.139 2.062,-1.906 v -4.9 c 0,-0.61 0.493,-1.106 1.108,-1.106 0.61,0 1.103,0.496 1.103,1.106 v 4.9 c 0.001,2.422 -1.755,4.117 -4.272,4.117 z"
   id="path77" />
			<path
   fill="#999a9b"
   d="m 109.954,180.033 h -3.529 c -0.612,0 -1.108,0.492 -1.108,1.104 0,0.003 0.003,0.006 0.003,0.013 v 7.74 c 0,0.607 0.497,1.103 1.105,1.103 0.609,0 1.104,-0.495 1.104,-1.103 v -2.342 h 2.424 c 1.669,0 3.359,-1.112 3.359,-3.247 0,-2.127 -1.731,-3.268 -3.358,-3.268 z m 0,4.305 -2.424,-0.003 v -2.095 h 2.424 c 0.192,0 1.148,0.052 1.148,1.06 0,0.965 -0.877,1.038 -1.148,1.038 z"
   id="path79" />
			<path
   fill="#999a9b"
   d="m 120.776,186.062 c 0.891,-0.516 1.54,-1.442 1.54,-2.762 0,-2.126 -1.734,-3.268 -3.361,-3.268 h -3.503 c -0.008,0 -0.019,-0.008 -0.03,-0.008 -0.61,0 -1.104,0.494 -1.104,1.104 v 7.761 c 0,0.607 0.493,1.103 1.104,1.103 0.611,0 1.106,-0.495 1.106,-1.103 v -2.342 h 1.996 l 1.572,2.869 c 0.202,0.37 0.579,0.575 0.971,0.575 0.179,0 0.36,-0.04 0.532,-0.134 0.532,-0.292 0.729,-0.964 0.438,-1.5 z m -4.248,-3.821 h 2.427 c 0.19,0 1.148,0.052 1.148,1.06 0,0.965 -0.88,1.038 -1.148,1.038 l -2.427,-0.003 z"
   id="path81" />
		</g>
		<g
   id="g95">
			<path
   fill="#999a9b"
   d="m 128.504,162.178 c -3.476,-0.473 -6.062,-0.945 -8.28,-2.524 -2.298,-1.584 -3.36,-3.877 -3.27,-6.561 0.095,-2.688 1.148,-4.975 3.24,-6.796 1.841,-1.577 4.816,-2.966 9.201,-2.966 6.257,0 10.735,2.243 11.341,4.923 0.497,2.226 -0.905,4.74 -3.831,4.74 -2.192,0 -3.694,-1.941 -6.524,-2.28 -1.573,-0.19 -3.233,0.112 -3.401,1.353 -0.146,1.098 0.827,2.202 3.007,2.597 2.423,0.476 5.564,0.389 8.994,3.002 2.164,1.651 2.99,4.086 2.956,6.093 -0.107,5.677 -3.156,10.178 -12.906,10.178 -6.662,0 -12.475,-2.303 -12.571,-6.478 -0.044,-1.897 1.519,-4.152 4.047,-4.085 3.381,0.079 4.155,2.067 8.081,2.701 2.298,0.373 3.55,0.051 3.776,-1.146 0.229,-1.242 -1.594,-2.435 -3.86,-2.751 z"
   id="path85" />
			<path
   fill="#999a9b"
   d="m 197.494,143.339 c -2.604,0 -4.713,2.192 -4.713,4.895 v 7.174 c -1.279,-0.704 -2.845,-1.122 -4.539,-1.122 -1.697,0 -3.261,0.418 -4.541,1.122 v -7.174 c 0,-2.702 -2.106,-4.895 -4.713,-4.895 -2.602,0 -4.715,2.192 -4.715,4.895 v 20.774 c 0,2.704 2.113,4.942 4.715,4.942 2.606,0 4.713,-2.238 4.713,-4.942 v -5.075 c 1.173,-0.886 2.767,-1.439 4.541,-1.439 1.771,0 3.367,0.554 4.539,1.438 v 5.077 c 0,2.704 2.108,4.942 4.713,4.942 2.605,0 4.713,-2.238 4.713,-4.942 v -20.774 c 0,-2.703 -2.107,-4.896 -4.713,-4.896 z"
   id="path87" />
			<path
   fill="#999a9b"
   d="m 215.817,169.057 c 0,2.701 -2.24,4.894 -5.001,4.894 v 0 c -2.767,0 -5.004,-2.192 -5.004,-4.894 v -20.778 c 0,-2.704 2.237,-4.939 5.004,-4.939 v 0 c 2.761,0 5.001,2.235 5.001,4.939 z"
   id="path89" />
			<path
   fill="#999a9b"
   d="m 114.045,167.334 -7.605,-20.597 c -0.935,-2.55 -3.476,-3.388 -6.131,-3.388 -2.66,0 -5.198,0.838 -6.136,3.388 l -7.602,20.597 c -0.942,2.541 0.286,5.502 2.734,6.356 2.454,0.857 5.158,-0.679 6.141,-1.945 1.512,-1.948 3.163,-2.355 4.862,-2.355 1.696,0 3.362,0.389 4.863,2.355 1.183,1.559 3.685,2.803 6.136,1.945 2.45,-0.854 3.671,-3.815 2.738,-6.356 z m -13.736,-3.876 c -2.126,0 -3.848,-1.722 -3.848,-3.85 0,-2.123 1.721,-3.847 3.848,-3.847 2.123,0 3.847,1.724 3.847,3.847 0,2.129 -1.724,3.85 -3.847,3.85 z"
   id="path91" />
			<path
   fill="#999a9b"
   d="m 171.302,167.334 -7.599,-20.597 c -0.938,-2.55 -3.483,-3.388 -6.136,-3.388 -2.655,0 -5.198,0.838 -6.135,3.388 l -7.599,20.597 c -0.943,2.541 0.287,5.502 2.734,6.356 2.45,0.857 5.153,-0.679 6.136,-1.945 1.517,-1.948 3.167,-2.355 4.865,-2.355 1.696,0 3.369,0.389 4.865,2.355 1.178,1.559 3.683,2.803 6.132,1.945 2.45,-0.854 3.678,-3.815 2.737,-6.356 z m -13.735,-3.876 c -2.123,0 -3.848,-1.722 -3.848,-3.85 0,-2.123 1.726,-3.847 3.848,-3.847 2.125,0 3.849,1.724 3.849,3.847 0,2.129 -1.724,3.85 -3.849,3.85 z"
   id="path93" />
		</g>
	</g>
</g>
</svg>
