<?xml version="1.0" encoding="UTF-8" standalone="no"?>
<!-- Created with Inkscape (http://www.inkscape.org/) -->

<svg
   xmlns:dc="http://purl.org/dc/elements/1.1/"
   xmlns:cc="http://creativecommons.org/ns#"
   xmlns:rdf="http://www.w3.org/1999/02/22-rdf-syntax-ns#"
   xmlns:svg="http://www.w3.org/2000/svg"
   xmlns="http://www.w3.org/2000/svg"
   xmlns:sodipodi="http://sodipodi.sourceforge.net/DTD/sodipodi-0.dtd"
   xmlns:inkscape="http://www.inkscape.org/namespaces/inkscape"
   width="250"
   height="175"
   id="svg5406"
   version="1.1"
   inkscape:version="0.48.2 r9819"
   sodipodi:docname="新規ドキュメント 10">
  <defs
     id="defs5408" />
  <sodipodi:namedview
     id="base"
     pagecolor="#ffffff"
     bordercolor="#666666"
     borderopacity="1.0"
     inkscape:pageopacity="0.0"
     inkscape:pageshadow="2"
     inkscape:zoom="0.98994949"
     inkscape:cx="141.78774"
     inkscape:cy="106.70192"
     inkscape:document-units="px"
     inkscape:current-layer="layer1"
     showgrid="false"
     inkscape:window-width="769"
     inkscape:window-height="418"
     inkscape:window-x="150"
     inkscape:window-y="150"
     inkscape:window-maximized="0" />
  <metadata
     id="metadata5411">
    <rdf:RDF>
      <cc:Work
         rdf:about="">
        <dc:format>image/svg+xml</dc:format>
        <dc:type
           rdf:resource="http://purl.org/dc/dcmitype/StillImage" />
        <dc:title></dc:title>
      </cc:Work>
    </rdf:RDF>
  </metadata>
  <g
     inkscape:label="レイヤー 1"
     inkscape:groupmode="layer"
     id="layer1"
     transform="translate(0,-877.36218)">
    <path
       inkscape:connector-curvature="0"
       d="M 244.09108,966.07845 C 242.5236,1023.1467 174.50112,1049.3816 125.8502,1048.7112 76.882166,1049.4269 9.0182447,1023.5 7.3375047,966.07845 8.2616847,910.23795 78.449656,882.2135 125.8502,883.98938 c 47.43226,-1.52218 117.1219,26.31199 118.24088,82.08907"
       style="fill:#fe0009;fill-opacity:1;fill-rule:nonzero;stroke:none"
       id="path4324" />
    <path
       inkscape:connector-curvature="0"
       d="m 99.212026,992.4448 c -9.07419,-0.81545 -11.7063,-2.28327 -13.59091,-11.41636 l 0.54364,-2.99 0.81546,-2.71818 1.35909,-1.35909 1.6309,-2.17454 1.90273,-1.63091 2.17455,-0.54364 5.16454,-0.81545 20.114544,0 0,7.88272 -20.114544,0 -1.35909,0.81546 -1.63091,0.54363 -0.54364,0.81546 0,3.53363 0.54364,1.3591 1.63091,0.81545 1.35909,0.81545 7.882734,0 4.89272,0.54364 2.17455,0.81545 c 6.93136,4.22225 5.61757,6.35149 5.70818,13.59088 l -0.54364,2.1746 -1.63091,1.9027 -1.35909,2.1746 -2.17454,1.359 -2.17455,0.8155 -4.89272,0.8155 -21.473644,0 0,-7.8828 20.658184,0 1.63091,-0.8154 1.35909,-0.5437 0.54364,-1.63088 0.81545,-1.90273 c -2.06129,-6.21104 -5.25515,-3.83263 -11.416364,-4.34909"
       style="fill:#ffffff;fill-opacity:1;fill-rule:nonzero;stroke:none"
       id="path4326" />
    <path
       inkscape:connector-curvature="0"
       d="m 125.8502,993.8039 0,-25.00727 9.24182,0 0,25.00727 0.54364,2.17454 1.63091,2.17454 2.71818,1.3591 2.17454,0.81542 2.99,-0.81542 2.17455,-1.3591 1.35909,-2.17454 0.81545,-2.17454 0,-25.00727 10.05727,0 c 1.39533,11.46619 4.04103,38.19497 -13.86272,40.77277 -10.30191,1.7079 -21.24259,-4.8837 -19.84273,-15.7655"
       style="fill:#ffffff;fill-opacity:1;fill-rule:nonzero;stroke:none"
       id="path4328" />
    <path
       inkscape:connector-curvature="0"
       d="m 54.090216,942.43027 c 4.28114,-1.90272 5.50432,-7.15787 4.89273,-11.41636 l -0.81545,-2.17454 -1.35909,-2.17455 -1.3591,-1.35909 -3.53363,-1.35909 -3.80545,-0.81545 -21.473631,0 0,40.77271 19.570901,0 3.53363,-0.81545 2.71819,-0.54364 2.98999,-1.63091 1.3591,-1.35909 1.35909,-2.17454 c 2.77254,-7.70151 3.1259,-10.17506 -4.07728,-14.95 z m -10.872721,12.77545 -6.52363,0 0,-24.19181 9.513631,0 1.35909,0.81546 1.35909,1.35909 0,2.17454 -0.81545,1.35909 -0.54364,1.35909 -2.174541,0.81546 -5.70819,0 0,7.88272 7.067281,0 2.17454,1.35909 0.81545,1.35909 c 0.64784,4.57108 -1.82571,6.4874 -6.523631,5.70818"
       style="fill:#ffffff;fill-opacity:1;fill-rule:nonzero;stroke:none"
       id="path4330" />
    <path
       inkscape:connector-curvature="0"
       d="m 157.38111,923.13119 -17.94,0 0,40.77271 c 18.30695,-0.24463 32.00658,3.31618 35.87999,-17.93999 1.26395,-10.61903 -5.79879,-23.98795 -17.93999,-22.83272 z m -2.99,32.07453 -4.89273,0 0,-23.37635 c 7.15788,0 14.10736,-1.41799 15.76545,7.88272 0.73391,8.79332 -0.11779,15.87418 -10.87272,15.49363"
       style="fill:#ffffff;fill-opacity:1;fill-rule:nonzero;stroke:none"
       id="path4332" />
    <path
       inkscape:connector-curvature="0"
       d="m 125.03475,945.42027 0,-22.28908 9.24182,0 0,40.77271 -9.24182,0 -14.40636,-23.64817 0,23.64817 -10.05727,0 0,-40.77271 10.05727,0 13.59091,22.28908 0.81545,0"
       style="fill:#ffffff;fill-opacity:1;fill-rule:nonzero;stroke:none"
       id="path4334" />
    <path
       inkscape:connector-curvature="0"
       d="m 214.73473,963.9039 10.05727,0 0,-40.77271 -10.05727,0 0,40.77271 z"
       style="fill:#ffffff;fill-opacity:1;fill-rule:nonzero;stroke:none"
       id="path4336" />
    <path
       inkscape:connector-curvature="0"
       d="m 69.855666,1009.5694 10.05727,0 0,-40.77277 -10.05727,0 0,40.77277 z"
       style="fill:#ffffff;fill-opacity:1;fill-rule:nonzero;stroke:none"
       id="path4338" />
    <path
       inkscape:connector-curvature="0"
       d="m 212.56018,1001.6866 0,-32.88997 -10.05727,0 0,40.77277 22.28909,0 0,-7.8828 -12.23182,0"
       style="fill:#ffffff;fill-opacity:1;fill-rule:nonzero;stroke:none"
       id="path4340" />
    <path
       inkscape:connector-curvature="0"
       d="m 201.68746,963.9039 10.05727,0 -14.40636,-40.77271 -10.05727,0 -13.59091,40.77271 23.10454,0 0,-8.69818 -10.87272,0 6.52363,-19.02726 9.24182,27.72544"
       style="fill:#ffffff;fill-opacity:1;fill-rule:nonzero;stroke:none"
       id="path4342" />
    <path
       inkscape:connector-curvature="0"
       d="m 188.91201,1009.5694 9.24181,0 -13.5909,-40.77277 -10.05727,0 -14.40636,40.77277 23.10454,0 0,-7.8828 -10.05727,0 6.25181,-19.29907 9.51364,27.18187"
       style="fill:#ffffff;fill-opacity:1;fill-rule:nonzero;stroke:none"
       id="path4344" />
    <path
       inkscape:connector-curvature="0"
       d="m 88.339306,963.9039 10.05727,0 -14.40636,-40.77271 -10.05727,0 -13.59091,40.77271 23.10454,0 0,-8.69818 -10.87272,0 6.52363,-19.02726 9.24182,27.72544"
       style="fill:#ffffff;fill-opacity:1;fill-rule:nonzero;stroke:none"
       id="path4346" />
    <path
       inkscape:connector-curvature="0"
       d="m 51.100226,1009.5694 13.5909,-40.77277 -10.05727,0 -8.42636,27.99726 -9.513631,-27.99726 -10.05727,0 14.40636,40.77277 10.057271,0"
       style="fill:#ffffff;fill-opacity:1;fill-rule:nonzero;stroke:none"
       id="path4348" />
  </g>
</svg>
