<svg viewBox="0 0 100 100" xmlns="http://www.w3.org/2000/svg" xmlns:xlink="http://www.w3.org/1999/xlink">
<linearGradient id="b" x1="-200" x2="200" y1="400" y2="-50" gradientUnits="userSpaceOnUse">
<stop stop-color="#fff"/>
<stop stop-color="#777" offset="1"/>
</linearGradient>

<g transform="matrix(.1 0 0 .1 45 45)">
<path id="a" d="m206 502c53-19 69-77 93-126 28-29 52 38 107 32 38-4 98-68 74-109-51-45-88 13-120-24-5-40 106-69 80-99-47-35-136-26-220-59-38-43 86-25 58-67-11-17-85-58-169-40-54 18 9 72-75 67-57-7-155-45-211-27-43 30-64 71-68 85-9 45 95 15 110 27 45 37-51 83-78 67-11-22-37-33-73-26-37 2-98 111-80 140 31 36 197 81 238 76 54 1 24-22 28-52 8-38 200 16 159 42-55 10-70 29-50 48 36 31 163 58 194 44z" fill="url(#b)" fill-rule="evenodd" stroke="#323232" stroke-width="11"/>
<use transform="translate(2,-9)" width="100%" height="100%" xlink:href="#a"/>
<path d="m253-302s29-23 67 10c0 0-36 47 24 62 0 0 32-2 41-13 0 0 4-11-3-23 0 0-5-8-5-14 0-7 19-17 24-19 19-10 44-15 65-9 20 6 34 28 34 48 0 10 1 20 1 29-1 9-1 39-12 42-7 2-16-7-22-7-10-1-17 2-22 15 0 0-12 32-8 49 0 0 6 19 27 16 0 0 23-8 24 18 0 0 3 46-17 76 0 0-8 6-17 6 0 0-27-6-38-15" fill="#b3b3b3"/>
<path d="m273 175c-4 59-14 128-56 173-8 9-24 23-32 31-22 22 22 5 27-1-6 8-16 24-16 35 0-1 13-8 15-9 5-3 10-7 15-11 20-14 37-31 52-49s28-37 39-58c6-11 10-22 15-34 8-24 14-52 13-78 0 0 2 139-68 311-1 3 1 3 3 3 5-2 8-10 10-15 3-5 6-10 8-15 7-12 14-25 20-38 3-6 6-12 8-18-4 10-7 21-10 32-6 17-11 35-17 52-1 2-7 21-3 21 3 0 7-6 9-8 8-8 18-14 26-22 9-9 18-18 25-29 10-14 19-28 26-44 9-19 14-39 19-59 1-3 1-5 2-8 26-115 15-285 13-320-2-41-5-49-8-78-2-16-7-42-16-54-11-26-25-36-39-35-48-32-46 9-51 15s22 143 22 143z" fill="#91b4c3"/>
<path d="m272 170s7 139-79 204c0 0-31 24-1 14 0 0 17-5 19-8 0 0-18 30-14 32 0 0 43-22 90-79 0 0 23-59 23-132 0 0 1 19 28 31 0 0 3-2 6-23l-1 2s4 95-60 265c0 0-13 27 7 0 0-4 40-69 40-74-1-7-35 103-32 104s51-42 60-60c0 0-42 36-46 34 0 0 109-232 53-444s-30-105-30-105l-67 59 36 65z" fill="#5f8291"/>
<path d="m329-219c-9-68-113-109-172-111-7 0-24-9-31-11-37-8-83-5-120 1-30 5-58 15-85 28-23 11-46 25-67 40l-27 144 517 27-16-120z" fill="#91b4c3"/>
<path d="m-166-251s19-18 30-25c0 0-16 29-14 43 0 0 17-38 65-44 0 0-59 53-72 125l21-6 79 98-34 127-31 30s-19-56-48-24c0 0-9 9-11 35l-29-10 21-333z" fill="#5f8291"/>
<path d="m178 255c5 8 18 8 26 8 30 1 56-32 57-60 1-14-5-25-21-23-28 4-51 24-61 50-3 7-7 17-3 25v1z" fill="#fae6be"/>
<path d="m205 264c-4 0-10 0-15-1s-10-3-13-7l1-1-1 1v-1c-1-3-2-5-2-8 0-6 3-13 4-18 10-27 33-47 62-50h4c6 0 11 2 14 6s4 9 4 15v3c-2 29-27 61-58 61h-1zm-14-4c5 1 10 1 14 1h1c29 0 54-32 55-59v-3c0-6-1-11-4-14s-6-5-12-5h-4c-28 4-50 23-60 49-2 5-4 11-4 17 0 2 0 5 2 7v1c2 3 6 5 11 6z" fill="#231f20"/>
<path d="m204 232s0 15-19 14c0 0-8 1-12-12s39-71 60-71c21-1 18 36 6 52s-10 9-10 9c3-9-2-22-12-24-9-2-16-4-24 3-13 11-3 26 10 30z" fill="#e6af78"/>
<path d="m211 235c12-1 19-10 26-21s11-24 11-35v-2h2v2c0 10-2 21-7 30-5 10-12 21-23 25-3 1-8 1-11 2z" fill="#231f20"/>
<path d="m-127 67c-19-10-44-5-56 11-14 18-13 45-6 66 10 32 38 48 38 48 26 12 50 0 50 0s-7-30-4-16c3 13 10 27 10 27 9 15 21 28 33 41 20 21 44 42 74 50 13 4 26 4 40 3 17-1 34-1 51-3 15-1 32-3 46-8 27-11 36-45 42-57 5-10 20-22 21-23 18-18 30-28 39-52 17-40 31-82 41-124 9-36 15-75 6-112-4-18-15-35-31-46-76-48-215-97-273-7-57 90-115 202-120 201z" fill="#fae6be"/>
<path d="m32 199c-8 2-19 20-21 28-3 9-15 45 27 50 31 4 42-40 46-61h4c-9-3-19-6-28-9-7-2-19-10-26-9h-1z" fill="#dc967d"/>
<path d="m37 279c-13-1-21-6-26-12s-6-13-6-19c0-9 3-17 4-21s5-10 9-16 9-11 14-12h3c8 0 19 7 25 9 9 3 18 5 27 8 1 0 1 0 2 1l-1 2h-2c-2 10-6 25-12 38-7 13-17 24-31 24h-4zm-5-78c-4 1-8 6-12 11-4 6-7 12-8 16s-4 12-4 20c0 6 1 12 6 18 4 5 12 9 24 11h3c14 0 23-10 29-22s10-27 12-38c-8-2-16-5-24-7-7-2-18-9-24-9h-2v-1z" fill="#231f20"/>
<path d="m33 201c-1 0-2 0-3 1-4 2-7 7-10 10-3 4-5 8-7 13 0 0 45-12 62 18 0 0 8-26 7-26s-8-2-10-3c-6-2-11-3-17-5-7-3-15-9-23-8z" fill="#be6e5a"/>
<path d="m126 160s30 16 38 15 30-14 53-54c0 0 13-98-65-54 0 0-34 40-26 93z" fill="#fff"/>
<path d="m20 133s20-6 30-18 11-14 14-19c4-5 14-38 14-45-1-7-19-70-94-38 0 0-34 28-36 40s-1 44 11 57 33 19 61 23z" fill="#fff"/>
<path d="m-45 40s85-43 123 16l8-10s-55-71-105-30c0 0-20 8-27 24z" fill="#b4b4b4"/>
<path d="m49 37c1-3-16-7-18-7-16 0-24 21-17 34 4 8 16 13 25 11 10-3 13-18 13-28 0-4 4 1 4 6 1 5 4 75-55 78 0 0-24-3-33-17 0 0-12-28 7-59 7-12 14-21 25-30 18-14 53-4 48 12z" fill="#231f20"/>
<path d="m-12 63c0 5-5 9-8 13-3 5-4 9-4 14 0 13 10 28 24 26s20-16 24-28c0 0-18 20-30 10-13-10-5-33-5-35z" fill="#5f8291"/>
<path d="m-19 80s-10 47 34 22c0 0-31 13-34-22z" fill="#91b6c3"/>
<path d="m-42 114 2-3s2 1 5 3 8 4 14 7c11 5 26 10 39 10h2v4h-2c-28 0-60-20-60-20z" fill="#231f20"/>
<path d="m126 161 1-2s6 3 13 7c8 4 17 7 25 8v2c-16-2-39-15-39-15z" fill="#231f20"/>
<path d="m153 66s62-12 62 59l5-9s12-82-62-56z" fill="#b4b4b4"/>
<path d="m198 81c0-1-2-2-2-2-2-1-3-3-5-3-3-2-9-1-12 1-4 3-5 7-6 12-1 7-3 16 2 22 3 3 7 3 11 2 9-2 15-11 15-20v-2c4 28-6 63-33 77-10 5-23 6-31-3-2-3-4-6-5-10 0 0-7-20 3-46 0 0 12-27 31-36s30-5 32 9z"/>
<path d="m152 114c-2 6-6 12-8 18-2 8-3 19 3 26 6 8 16 5 22-1 7-6 6-14 8-23-1 4-8 9-11 11-8 4-12-3-14-10s-2-14 0-21z" fill="#5f8291"/>
<path d="m169 150s-22 7-22-12c0 0-5 35 22 12z" fill="#91b6c3"/>
<path d="m-39 268s-53-79-14-217c0 0 16-59 33-78 0 0 8 27 14 27 6 1 14-2 14-2s18-72 29-82c12-10 14-9 14-9s-6 71-2 88c4 18 27 30 27 30 6 3 14-1 16-6 3-5 3-11 5-16 4-12 9-25 14-37 12-29 24-58 43-83 7-9 19-25 31-26 8-1 4 17 3 22-5 33-13 97-38 142 0 0-20 29 10 21 20-6 37-13 45-34s12-45 15-67c2-14 2-28 1-41-3-50 9-45 9-45l10 48s15 90-34 157c0 0 16 15 16 42 0 0 22-16 38-38s10-7 10-7 3 27-25 71c-4 7-17 24-6 29 12 6 20-12 26-18 7-8 16-15 25-22 8-7 16-14 25-21 2-1 11-7 11-9 0 0 21-162-23-192-44-31-113-153-229-101s-70 110-70 110-80 59-78 168c0 0-45-4-57-6-15-3-21-7-36 0-42 22-31 62-14 97 7 14 15 23 30 29 7 3 15 6 23 7 2 0 25-3 25-5l-2-8s10 32 65 82z" fill="#e6af78"/>
<path d="m-132 142c0-5 2-11 7-17 4-6 6-11 6-17 0-12-10-22-26-23h-2c-10 0-18 6-23 15s-7 21-7 32c0 9 1 17 4 23l-2 1c-3-6-4-15-4-24 0-11 2-24 8-33 5-10 14-16 25-16h2c17 1 28 12 28 26 0 6-2 12-7 18-4 6-6 11-6 15 0 10 9 17 13 20 1 1 2 1 2 1h-2s-16-6-16-21z" fill="#231f20"/>
<path d="m83 157c-1 0-1-1-2-1-5-1-16 7-15 12l1 10s8 2 8 5c0 0 14-2 13-13 0-4 0-11-4-14z" fill="#e6af78"/>
<path d="m82 185c-1 0-1-1-1-2s0-2 1-2c4-6 7-11 7-11l2 1s-3 5-7 11v1h1c1 0 3-1 5-2s3-3 3-5c0-1 0-1-1-2l2-1c0 1 1 2 1 3 0 3-2 5-4 7-2 1-4 2-6 2-1 0-2 0-2-1z" fill="#231f20"/>
<path d="m143-280c-260-88-320 166-329 213-4 22-4 44 2 66 2 8 10 36 24 31 11-4 22-35 27-45 7-13 13-27 19-41-17 36-26 80-12 119 4 11 22 47 35 48 18 0 19-29 21-41 3-24 7-72 20-93 15-24 23-36 41-59 9-11 37-60 50-65-18 7-53 71-56 91-2 15 4 51 23 53 14 1 20-24 24-34 6-16 14-30 24-44 18-23 38-45 59-65-11 10-19 20-27 30-46 63-29 123-26 128 3 6 18 19 21 15 3-3 10-11 29-74s63-86 63-86c-1 0 7 64 7 68 0 22-3 42-7 63-4 18-39 86 9 50 29-22 54-65 38-165 0 0 46 138-2 188 0 0 1 36 30 17 15-10 23-22 30-38-4 25-12 49-19 74-4 14-23 38-11 52 14 16 42-10 52-20 46-44 36-165 34-183 2 10 4 19 7 29 5 17 10 33 18 49 2 4 4 8 7 11 2 2 7 6 10 6 7 0 11-8 13-13 12-26 15-55 11-83-1-8-2-16-4-24-6-28-15-66-41-82 0 0-15-135-148-123" fill="#91b4c3"/>

<g fill="#5f8291">
<path d="m148-330s39 27 50 62c0 0 24 1 36 7 0 0-13-14-25-13 0 0-10-2-10-6 0 0 27-6 37 1 0 0-23-26-52-25 0 0-7-2-10-6 0 0 14-10 22-10 0 0-29-11-49-10z"/>
<path d="m177-109s7 53 3 70c0 0-2 25-6 38-13 38-16 47-16 50 0 4 74-90 19-158z"/>
<path d="m75-110s13-41 49-42c0 0-48 43-51 98-2 20-3 40-2 60 0 4 2 8 2 12-13 7-16-17-17-27-3-21-2-40 5-60 6-18 15-34 24-50 0 0-2-1-11 10z"/>
</g>
<path d="m78-104"/>
<path d="m66 212s12 22 9 31c-2 8 8-22 7-26 0 0-13-4-17-5z" fill="#965046"/>
<path d="m75 244v-1c0-4-1-13-10-31l1-1c9 18 10 28 10 32v2h-1z" fill="#231f20"/>
<path d="m4 161c-1 3-3 4-7 5-3 1-6 0-10 0-3 0-7 0-10-1-4-1-7-2-10-3-4-2-7-3-9-5-4-3-7-6-6-9s5-3 10-4c3-1 6-2 10-2 3 0 7 1 10 2 4 1 7 2 10 3 4 2 7 3 9 5 4 3 4 6 4 9z" fill="#eaba91"/>
<path d="m171 209c-1 3-3 3-8 3-3 0-7 3-11 2-3-1-6-3-10-4-3-1-6-4-9-6s-6-4-8-6c-3-3-7-6-6-9s6-3 10-3c3 0 6 1 10 2 3 1 6 2 10 3 3 1 7 2 10 4s6 4 8 6c3 3 4 6 3 8z" fill="#eaba91"/>
<path d="m-34 161c1-1 1-3 1-5 0-3-1-7-2-10s-2-5-2-5l1-1s4 9 4 15c0 2 0 4-2 6l-1-1z"/>
<path d="m-14 166v-5c0-5-1-9-3-12-1-3-3-5-3-5l1-1s6 7 6 17v5zm-5-21z"/>
<path d="m123 196c1 0 2-3 3-6s1-6 1-6h1s0 3-1 6-2 6-4 7z"/>
<path d="m139 209c1-3 2-5 2-8 0-4-1-7-2-10s-2-4-2-4l1-1s4 7 4 15c0 3 0 6-2 8z"/>
<path d="m157 193"/>

<g fill="#5f8291">
<path d="m35-146c-1 0-44 85-36 138 0-2-6-5-8-8-16-33-7-53 16-95 6-10 14-21 22-30 3-3 3-2 5-6z"/>
<path d="m-145-182s-26 87-10 131c0 0 40-73 79-69 0 0-12 1-54 88-4 7-21 49-26 52-3 2-10 22-27-9 0 0-13-53-8-69 0 0 15-75 46-125z"/>
<path d="m-75-123s-40 118-21 142c0 0 79-158 127-164 0 0-10 11-35 48 0 0-42 56-52 75 0 0-7 7-14 56 0 0-5 62-11 64 0 0-4 14-19 10 0 0-20-24-29-47-8-23-8-66 2-89 0 0 15-47 22-53 0 0 26-43 29-43z"/>
<path d="m-269 52-6-27s-31 93-36 258c0 0-10-113 2-166s35-143 35-143l22-1-1 55z"/>
</g>
<path d="m-274-13s-60 128-39 311c0 0 2 12 6-10 0 0 13-262 44-269z" fill="#91b4c3"/>
<path d="m-273 5c-9 0-13 26-15 31-12 46-18 95-25 142l-9 72c-1 10-2 19-2 29 0 8-2 14-12 10-11-5-12-24-14-34-10-61-12-136 1-203 25-128 85-207 85-207l43-62 10-4-4 218z" fill="#5f8291"/>
<path d="m-203-288s34 16 27 116c0 0-17 76-15 102 0 0-32 221 32 343 0 0 44 72 57 79 0 0 4 8-10 4-9-7-17-15-25-24-15-16-25-36-37-55 0 0 27 73 38 84 0 0 15 23-8 14 0 0-46-10-88-97 0 0-84-233-18-411l12-157h34z" fill="#91b4c3"/>
<path d="m-190-110-20 2s-16 48-17 131 8 267 84 344c0 0 7 15-5 8-12-6-116-32-126-330 0 0-14-118 32-199l-14-124 59-13s21 15 22 81c0 0 0 71-14 101z" fill="#5f8291"/>
<path d="m-227 22s4 46 12 56c0 0 13-24 15-40 0 0-12 58-12 86l-14-40s-2-56-2-62z" fill="#dee9ed"/>
<path d="m-330-146c-15-6-36-5-48-15-5-5-3-14-2-20 6-24 21-58 21-71-14 4-24 6-34 0-17-23-2-58 13-72 15-13 30-8 43 7 0 0 5 6 7-4 3-14 4-29 8-43 7-23 33-47 59-45 6 0 23 2 25 8 2 4-7 11-9 14-12 18-1 29 17 32 32 6 32 5 38 4 5-1 8-6 10-9 4-7-2-14 2-21 9-14 32-1 43 1 16 4 31 11 44 22 10 9 4 22 0 32-5 13-12 26-20 36-6 7-13 14-20 19 0 0-5 8-18-1-12-9-24-11-36-1-10 9-19 20-21 34-2 10-1 20 8 25 7 3 23 1 27 9 3 6 7 5 8 26 0 21-19 44-22 48s-8 12-23 8-24-8-37-10c-6-1-12-5-18-6-7 0-10 11-4 15 4 2 11 10 11 14 0 5 4 12-9 21 0 0-8 6-22 3-14-4-50-11-53-26-2-15 8-30 12-34z" fill="#b3b3b3"/>

<g fill="#e6e6e6">
<path d="m-205-349s-36-7-42-10-8-11-7-14 4-11 11-19c8-8 3-7 3-7l-7-4c-3-2-26 37-9 44 9 4 45 16 57 11"/>
<path d="m-174-387c23 11 69 24 81 33-12-14-56-31-81-33z"/>
<path d="m-93-351c2 3-5 18-6 20-6 14-13 29-23 40-4 5-8 10-14 14-7 5-10 3-17-1-15-9-32-7-44 6-8 9-16 19-18 31-2 13-4 31 12 35 8 2 19 1 24 8 6 10 3 28 0 38-3 8-7 14-12 21-8 11-9 17-23 12-9-3-17-8-25-10-7-2-22-9-29-6-8 3-12 9-9 17 2 6 10 9 11 14 1 4 11 18-16 25 0 0 12 3 19-6 7-8 5-9 5-13s-2-8-3-9-4-5-6-5-5-7-5-9c0-3 0-8 8-10 0 0 7 1 14 5 0 0 37 10 43 12 0 0 14 4 20-7 0 0 18-24 19-48 0 0 2-18-7-25 0 0-3-5-16-6s-18-7-17-10c0-3-3-24 1-30s16-24 26-28 17-4 33 8c0 0 8 7 17-3 0 0 31-24 42-70 0 0 1-4-2-9z"/>
</g>
<path d="m-356-327s9-4 16 8c12.17-.08083 11.7 5.243 3 4-8-4-12-12-19-12z" fill="#fff"/>
<path d="m-283-228c0 4-2 9-2 13l-25-6 3-14c3 1 0 6 4 6l15 4c3-2-5-5-7-7-7-7-10-16-7-25 5-15 19-19 31-17 17 3 25 12 26 28-1 12-7 16-15 21-4 2-11 1-10 4l17 3c1 0 3-6 4-3-1 5-2 9-3 13l-25-5c1-4 3-9 4-13 9-2 13-9 16-16 4-11-2-24-8-27s-10-3-16-1c-7 2-12 9-12 19 0 9 4 17 10 23z"/>
<path d="m-307-279c-17-9 7-21 7-6 0 10-6 14-14 17-6-1-2-4 0-5 4-1 5-4 7-6z"/>

<g fill="#dee9ed">
<path d="m-130-206s-4 50-2 66c0 0 62-14 73-3v9s-55 2-77 18c0 0-11-50-7-70z"/>
<path d="m-59-135s-15 26-4 58c0 0 65-60 82-58 16 2-67 51-85 87s-7-90-9-88 17 0 17 0z"/>
<path d="m23-130s-8 21-6 54c0 0 41-58 72-49 0 0-52 47-72 65 0 0-4-20-2-59"/>
<path d="m75-95s2 56 5 61c0 0 4-21 46-50 0 0-20 29-51 74l-9-64z"/>
</g>
<path d="m32-84c-22 0-43 11-52 16-3 2-5 3-5 3l-1-2s28-19 58-20c19 0 39 8 53 33l-2 1c-14-24-33-31-51-31z"/>
<path d="m-120-49"/>

<g fill="#dee9ed">
<path d="m179-33s16 9 16 25c0 0 22-10 27-23 0 0 1 2-2 14 0 0-18 19-25 21s-11-22-18-24c0 0 0-2 1-13z"/>
<path d="m283-45s16 19 21 42c0 0 24-38 25-44 0 0 5 5 5 28 0 0-20 28-26 39 0 0-21-40-22-41 0 0 1-4-2-24z"/>
<path d="m306 256s-2 10 6 17c0 0 12-7 14-10 0 0-6 18-8 20 0 0-7 3-11 7l-5-13z"/>
<path d="m354 242s15 40 15 59c0 0 14-32 12-75l12 48s17-27 24-46c0 0-2 12-3 20 0 0-18 38-23 40 0 0-6-10-8-21 0 0-6 30-13 45 0 0-16-42-20-53z"/>
</g>
<path d="m221 76"/>
<path d="m219 83s97-69 2-198c0 0 46 134-2 188z" fill="#5f8291"/>
<path d="m241-29s12 17 19 31c0 0 24-33 22-47 0 0 4 22 2 26 0 0-11 25-20 35 0 0-21-27-22-28 0 0-1-8-1-17z" fill="#dee9ed"/>
<path d="m370 65s-10-122-42-124c0 0 9 28 7 25l12 51 16 39s6 7 8 9z" fill="#5f8291"/>
<path d="m332-47s28 21 37 37c0 0 8-36 6-100 0 0 7 12 10 22 0 0-1 71-8 92 0 0-42-34-42-36 0 0-1-9-2-15z" fill="#dee9ed"/>
<path d="m273 57"/>
<path d="m245 160s102-79 39-182c0 0 8 38-24 144 0 0 0 6-9 24 0 0-7 13-6 14z" fill="#5f8291"/>
<path d="m-249-132"/>
<path d="m260-302c21-10 39-1 58 10-5 15-16 25-4 34 7 11 12 29 28 29 15 2 30-5 43-12 13-11-7-23-6-37 4-12 21-14 32-20 21-8 46-15 66-2 15 13 23 34 23 53 0 25-2 32-5 49-8 14-27-4-39 2-15 5-13 23-16 36-3 14-8 30 4 40 10 11 20 4 32 5 15 5 11 23 12 35 0 21-4 43-17 60-9 9-23 4-33 0-5-2-22-8-18-11 14 4 27 10 42 11 12-7 17-25 20-38 1-15 9-34-2-47-9-11-34 3-42-16-9-14-6-31-3-46 3-13 9-30 25-31 12-2 31 15 34-6 1-32 3-70-17-91-37-18-68 6-90 17 7 11 20 29 5 41-10 9-25 14-38 16s-27-9-30-23c-24-30-18-30-22-50-13-9-22-8-33-4z" fill="#dee9ed"/>
<path d="m-285-83c-17-2-34-8-49-16-14-8-14-28-4-39 13-12-8-11-23-14s-26-11-20-25c6-25 15-49 22-74-11 3-21 13-35 2s-10-28-8-40c3-19 20-42 42-43 11-4 23 19 28 12 2-30 12-60 31-76 16-13 39-17 59-11 11 7 4 15-3 26-12 22 19 25 33 28 13 5 33 2 31-16-3-12 5-25 19-20 25 6 52 14 72 32 10 13-2 29-6 43-6 18-20 32-33 45-14 14-25-10-40-8-21 4-34 26-36 46-5 20 17 16 29 22 16 9 15 32 10 48-7 15-14 33-29 41-17 3-33-6-49-10-9-5-34-9-23 7 12 9 16 30 0 37-6 3-12 3-18 3zm-74-171c3 15-8 33-11 49-3 14-9 27-9 42 12 11 33 9 48 16 14 3 1 4-4 11-11 11-9 31 7 37 18 8 38 15 58 11 21-9 4-27-4-39 1-24 31-6 44-2 14 4 33 14 43-2 10-12 16-26 19-41 2-13-2-31-17-35-16 1-32-9-26-27 2-21 17-42 38-46 13-2 22 11 33 13 15-10 27-25 35-41 5-15 22-38 5-51-21-15-46-22-70-27-16 1-6 21-13 30-10 14-30 6-44 4-15-1-37-14-25-32 7-7 15-20-2-21-21-4-47 5-57 25-12 20-17 43-20 66-12 9-22-18-37-12-23 6-30 33-31 54 4 33 19 21 40 18z"/>
<path d="m-331 292c-4 0-7-2-10-4s-5-4-5-4c-12-38-15-97-15-136 0-23 1-38 1-38 9-97 54-198 54-198l3 1s-3 6-7 17-10 27-17 45c-12 37-26 87-30 135 0 1-1 16-1 38 0 38 2 98 14 134l4 4c2 2 6 4 8 4 1 0 2 0 3-2s2-5 2-10v-2s5-49 13-105 18-119 27-148c3-8 5-14 8-16l2 3c-1 1-3 4-5 9s-4 12-6 20c-4 16-8 37-12 60-8 46-15 101-19 137-3 23-5 38-5 40v2c0 6-1 10-2 12-1 3-4 4-6 4z"/>
<path d="m-314 299v-5c0-2-1-5-1-9-1-7-1-17-2-26-1-18-2-37-2-37h4s1 13 2 29 2 33 3 42v4l1-1c1-2 2-4 2-8 0-2 1-14 3-33 1-18 3-43 6-69 5-52 11-110 18-137 2-8 4-14 7-16l3 3c-1 1-3 4-4 9s-3 11-4 19c-3 15-6 35-8 56-5 43-9 93-12 128-2 23-3 39-3 41-1 6-2 10-4 12-1 1-2 1-3 1s-2-1-3-2z"/>
<path d="m-135 380c-38-9-66-43-86-80-20-36-32-74-36-91 0 0-21-130-21-233 0-22 1-44 3-62h4c-2 18-3 39-3 62 0 77 12 169 18 210 2 13 3 21 3 22 4 16 16 54 35 90 20 36 48 70 83 78h3s1 0 1-2c0-1-1-4-3-8-8-13-16-25-23-38-29-58-46-124-54-188-3-28-5-56-6-85h4c1 28 3 56 6 84 8 64 24 129 53 187 7 13 15 25 23 38 3 4 4 8 4 10s-1 4-2 5-3 1-4 1h-1zm-82-324z"/>
<path d="m-112 359c-2 0-5-2-8-4s-6-6-10-10c-7-8-15-19-23-29-15-21-29-43-29-43l3-2s3 4 7 10l16 24c13 18 28 39 38 46 3 2 5 3 5 3s1 0 2 1c1 0 3 1 5 1h3v-1c-1-2-4-4-8-8 0 0-91-78-91-261v-10c3-187 14-177 14-202l4-3c0 26-10 18-14 205v10c0 159 69 237 86 254l4 4c6 5 9 8 10 10 0 1 1 1 1 2s0 2-1 2h-2c-1 1-3 1-4 1-4 0-7-1-8-2z"/>
<path d="m-177-203v-11c0-32-10-51-13-55 0-1-1-1-1-1l3-2s14 20 14 58v12z"/>
<path d="m-180-245c10-9 19-19 29-26l2 2c-10 8-19 17-29 27z"/>
<path d="m252-303c-39-18-81-25-98-27-5-1-8-1-8-1-27-9-53-12-79-12-86 0-158 40-175 50l-2-4s77-50 177-50c26 0 53 4 80 13 6 0 102 8 153 60 18 18 30 41 31 70h-4c-2-50-36-80-75-99z"/>
<path d="m350-154"/>
<path d="m377 71s-5-1-11-8-14-20-22-45c-13-56-12-55-17-72 0 0-2-6-5-12-3-7-7-14-11-18l3-3c5 5 8 12 11 19s5 12 5 12c5 18 4 16 17 72 13 42 26 48 29 49 9-6 15-20 18-36s4-33 4-45v-14c0-12-2-24-5-36-4-16-11-31-20-45-3-5-7-9-10-14-5-7-6-15-9-22-2-6-5-13-7-19-5-12-10-23-16-33-18-30-45-49-79-55-9-2-19-3-28-3-6 0-11 0-17 1l-1-4c6-1 12-1 18-1 10 0 20 1 29 3 36 6 63 26 82 57 6 11 12 22 16 34 3 6 5 13 7 19 3 8 4 15 9 21 3 5 7 9 11 14 9 14 16 30 21 46 3 12 5 24 5 36v14c0 12-1 30-4 46s-9 31-21 38h-2z"/>
<path d="m249 181c-4-2-7-6-7-13 0-2 0-5 1-8 0 0 2-5 5-13s7-19 11-31c8-24 16-52 17-64h4c-1 14-9 41-17 65-8 23-15 44-16 45-1 3-1 5-1 7 0 5 2 8 5 10s6 2 9 2h3c7-1 14-5 20-9 10-7 18-16 26-26 8-11 16-23 19-36 4-14 4-28 6-43 1-13 2-26 2-40v-5c0-12-1-23-1-35 0-5 0-16-1-20l4-1c1 5 1 16 1 20 0 12 1 23 1 35v5c0 13-1 27-3 40-1 14-2 29-6 44-4 14-11 26-20 37-8 10-16 20-27 26-6 4-14 8-21 9h-3c-3 0-7 0-11-3z"/>
<path d="m223 92s-5-6-6-14c0-3 1-6 3-9l1-1c0-1 1-2 2-3 2-2 4-6 6-11 5-9 9-23 9-40v-7s0-13-1-30c-1-18-4-38-7-56l-1-2c-2-12-4-21-7-27l1-2c6 7 9 17 11 30 2 12 4 26 5 39 2 25 2 48 2 49v7c0 34-18 55-19 57-2 2-2 5-2 7 0 5 3 9 4 11l1 1c2 2 6 3 10 3h4c8-2 16-10 22-16 7-7 12-14 15-23 6-18 8-37 8-56 0-7 0-14-1-21-1-14-1-25-3-40v-2l1-2c2 14 4 29 5 43 0 7 1 14 1 21 0 19-2 38-8 57-3 10-9 18-16 25-6 6-14 14-23 16-1 0-3 1-5 1-4 0-9-1-12-4z"/>
<path d="m161 60c-1 0-2 0-3-1s-3-4-3-7c0-4 1-10 5-19l1-1c0-1 1-2 2-4 2-4 4-9 6-17 4-15 9-39 9-72 0-20-2-42-6-68-1 1-3 2-6 4-5 4-12 10-19 18-14 16-31 42-41 80 0 0-9 27-17 44-3 5-5 10-7 12 0 0-1 1-2 1-1 1-3 2-6 2-5 0-11-3-17-15-3-7-7-21-7-38 0-35 11-83 62-125l3-1h2c-51 42-63 92-63 127 0 17 3 30 6 37 5 11 10 13 14 13 2 0 4-1 4-1h1l1-1c1-1 2-3 3-6 2-5 5-12 8-19 5-13 10-26 10-27 19-77 69-106 69-106l2-1v3c4 27 6 51 6 72 0 64-17 94-18 96-4 9-5 14-5 18 0 3 1 4 1 4l1 1h1c2 0 6-1 9-3s6-4 8-5l2-2c29-22 38-61 40-79 1-6 1-10 1-10 1-8 1-17 1-27 0-15-1-31-2-44-1-12-2-21-2-21l1 3c0 4 5 31 5 62 0 10 0 20-1 28 0 3-2 61-42 91 0 0-3 3-8 5-4 3-9 5-14 5h-2z"/>
<path d="m9 0s-20-5-27-31c0-1-1-4-1-11 0-17 6-48 51-104l4-2c-45 55-51 90-51 105 0 5 1 8 1 9 6 22 20 27 23 28 1 0 2-1 3-2s3-3 4-6c3-5 6-11 9-17 6-12 10-25 10-25 11-29 55-72 55-72l3 3-7 7c-4 4-10 11-16 18-12 14-26 32-31 45 0 0-3 10-8 20-5 11-10 23-16 29-2 2-3 3-5 3z"/>
<path d="m-99 109c-3-1-5-4-7-6-3-4-6-8-9-12-8-12-14-25-18-39-2-8-4-16-4-25v-2c0-6-3-82 55-142l3-3 3-1c-54 58-57 139-57 145v2c0 8 1 16 4 24 4 13 10 26 18 38 3 4 6 8 9 12 2 2 3 4 5 5 1 0 4 1 7 1h2c9-6 14-23 14-34 0-8 1-16 2-23 3-25 7-51 19-74 3-5 6-10 9-14 10-16 21-32 32-47 6-8 11-15 17-22l2 2c-6 7-11 15-16 22-11 15-22 31-32 47-3 5-6 9-8 14-12 22-16 48-19 73-1 8-2 15-2 23-1 12-5 30-16 37-1 1-3 1-4 1-3 0-6-1-8-1z"/>
<path d="m-182 14c-5-12-9-33-11-68 0 0 10-80 62-153 0 0 80-96 192-96 34 0 65 7 103 30l4 6c-38-23-75-31-108-31-97 0-170 73-186 91-2 2-3 4-4 4-39 54-54 112-59 138-2 8-2 12-2 13 2 35 6 55 11 66s9 14 12 14 5-2 6-2c5-5 12-16 19-28s13-26 17-34c3-6 4-10 4-10l3 1s-6 15-15 32c-8 17-18 35-26 42-1 1-4 3-8 3-5 0-11-4-16-16z"/>
<path d="m-144 196c-20-7-34-23-41-42-3-8-6-16-9-24-1-4-2-9-2-15 0-7 1-14 2-20s4-11 7-16c9-12 23-19 38-19h2c7 0 15 2 21 5l-2 3c-5-3-13-5-20-5h-2c-13 0-27 7-35 17-3 4-5 10-7 15-1 6-2 13-2 19 0 5 0 10 2 14 2 8 6 16 9 24 7 18 21 34 39 40 5 2 11 2 17 2 9 0 17-2 25-4l1 4c-8 2-17 4-26 4-6 0-12-1-18-3z"/>
<path d="m8 296c-21-6-49-28-49-28-64-53-65-86-65-89h4c0 2 1 34 64 86 0 0 2 1 5 4 3 2 7 5 12 8 10 6 22 13 31 16 0 0 1 0 2 1 2 0 4 1 8 1 7 1 18 2 32 2 6 0 12 0 19-1 17-2 33-3 50-5 19-2 34-6 46-20 4-5 8-11 11-17 5-10 7-22 15-32 14-17 32-31 46-48 2-2 4-5 5-7l3 1c-1 4-4 6-6 9-14 17-31 32-46 48-7 9-9 20-14 31-3 6-7 12-11 18-13 15-29 19-48 21-17 2-33 4-50 5-7 0-13 1-19 1-29 0-43-4-43-4z"/>

<g fill="#231f20">
<path d="m179 390c-1-1-1-2-1-3v-1c2-5 10-12 10-12 30-21 45-47 50-59l3-6c25-49 29-94 29-117 0-9-1-14-1-14h2s1 5 1 14c0 22-4 68-29 118-1 2-14 38-54 66l-4 4c-2 2-4 5-5 7v2s1 1 2 1 3 0 6-2c0 0 5-2 11-5s14-7 18-10l1 2c-10 7-30 16-30 16-3 1-5 2-7 2s-3-1-4-2z"/>
<path d="m283 223"/>
<path d="m195 413v-1c0-2 1-5 2-5 1-6 4-11 7-16s7-8 11-12l9-9c6-6 11-12 16-19 16-21 27-45 35-70 3-11 7-23 8-35h2c-1 12-5 24-8 35-8 26-19 50-35 71-5 7-11 13-16 19l-9 9c-4 4-8 7-10 12-3 5-6 10-7 16 0 0 0 1-1 2 0 1-1 2-1 3 1 0 2-1 3-2 0 0 2-1 5-3s8-5 13-9c11-8 26-20 42-36 32-32 67-82 81-152h2c-28 138-138 198-142 200-2 2-4 3-5 3s-1 0-2-1z"/>
<path d="m277 489v-3c0-2 1-5 1-5 6-13 12-30 12-30 29-62 43-158 49-201 2-15 3-23 3-23 1-5 1-14 1-26 0-25-2-62-4-92s-4-54-4-54h2s8 96 8 147c0 11 0 20-1 26 0 3-13 142-52 225 0 1-6 17-12 30 0 1-1 3-1 5v1s1 0 2-1l4-4c1-1 10-18 20-37s21-41 23-48l2 1c-2 8-13 29-23 48-10 20-20 37-20 37-2 2-3 4-4 5s-2 2-3 2-2-1-2-2z"/>
<path d="m295 508v-1c0-3 3-14 6-26 4-12 8-26 10-35 4-12 7-24 11-36 5-10 8-20 11-31 6-22 9-44 12-66 2-19 4-38 6-56 2-17 2-33 2-50v-7c0-17-1-33-1-50 0-19-1-39-2-58-1-15-1-30-2-45 0-6-1-12-1-18h2c0 6 1 12 1 18 1 15 1 30 2 46 1 19 2 39 2 58 0 17 1 33 1 50v7c0 17 0 33-2 50-2 19-3 38-6 56-3 22-6 44-12 66-3 11-6 21-11 31-4 12-7 24-11 36-3 9-7 22-10 35-3 11-6 21-6 24 3-1 6-3 8-5 0 0 3-2 9-7 5-5 13-11 21-20 16-18 36-43 48-73 0 0 1-1 1-3 1-2 2-5 4-10 3-9 8-22 12-41 9-37 18-95 18-176v-20c0-44-1-151-12-217-4-22-9-39-15-48 0 0-1-2-2-5-2-3-4-7-7-12-6-8-14-17-25-17-2 0-4 0-6 1l-1-2c2-1 4-1 7-1 12 0 21 9 27 18 6 8 9 16 9 17 6 9 11 27 15 49s6 49 8 76c4 55 4 112 4 142v20c-1 160-35 228-36 231-24 61-76 100-79 101-3 3-6 6-10 6h-1v-1z"/>
</g>
<path d="m411-40c21 12 49 35 60 18 10-17 25-63 14-86-7-14-24-1-37-7-20-9-13-58 0-76 8-10 22-6 33-1 29-9 18-76 9-92-8-15-27-25-44-23-24 2-46 14-65 27-7 14 20 27 4 41-11 11-26 16-42 13-21-4-38-37-35-50 4-17-1-24-12-25-12-3-27-8-37 1-7-9 17-11 23-10 12 1 28 6 38 18-12 24-5 33 7 52 9 15 33 9 48 4 14-5 15-22 4-30-11-10-2-23 9-27 21-12 45-23 70-18 51 9 56 81 36 118-9 18-28-7-41 1-15 18-21 64-4 73 12 6 31-5 38 10 11 20-2 73-13 89-18 22-44-2-62-14"/>

<g fill="#231f20">
<path d="m-51 52s33-61 90-41c7 2 14 6 19 11 5 4 10 9 14 15 3 4 5 17 12 13 10-6 3-23-3-28-11-9-21-19-35-24-36-13-79 0-92 39-1 5-1 11-4 15z"/>
<path d="m217 123s8-7 9-9 3-14 0-30c-2-15-16-58-72-24l-4 10s35-27 58 1c0 0 14 16 9 51z"/>
<path d="m216 123c1-5 1-10 1-14 0-19-6-30-8-35l-2-2c-7-9-16-12-25-12-8 0-16 3-22 6s-10 6-10 6l-2 1 5-12c15-9 28-13 37-13 26 0 34 26 36 37 1 6 1 11 1 16 0 4 0 7-1 10 0 3-1 4-1 5l-10 10v-2zm-8-52s10 12 10 38c0 4 0 8-1 13l3-3c2-2 5-4 5-5 0 0 1-2 1-4s1-6 1-10 0-10-1-15c-2-11-9-36-34-36-9 0-21 3-36 13l-3 8c5-3 17-11 31-11 9 0 18 3 26 13z"/>
</g>
<path d="m212-24c-10 0-18 4-22 6-1 1-2 1-2 1l-1-2s11-7 25-7 32 8 44 39l-2 1c-12-30-28-37-42-37z"/>
</g>
</svg>
