<?xml version="1.0" encoding="UTF-8"?>
<!-- Created with Inkscape by Vulphere (http://www.inkscape.org/) -->
<svg width="196.3066" height="52.94393" version="1.1" viewBox="0 0 196.3066 52.94393" xmlns="http://www.w3.org/2000/svg">
<title>ZERO-G logo</title>
<desc>Japanese animation studio</desc>
 <g transform="translate(-351.7676 -117.2677)">
  <g transform="translate(0 958.6794)">
   <g transform="matrix(.1747611 0 0 .1747611 278.1055 -694.3657)">
    <g transform="matrix(.5432834 0 0 .5432834 192.5069 -384.2867)">
     <path d="m558.9996-421.2836-137.4977-137.5005 137.7475-137.7475 137.7391-144.8802 51.2552 51.24796c28.19036 28.18638 51.71034 58.38062 52.25635 58.38062 0.54602 0 23.8319-22.83585 51.7464-50.74632l50.75364-50.74633v137.0154l-16.5 16.47727c-9.075 9.0625-16.5084 9.80468-16.5084 10.367 0 0.56231 7.54075 8.55335 16.7572 17.75784l16.75719 16.73545 9.96249 127.0943-216.4662 224.0454c-0.27776 0-62.37898-61.8752-138.0027-137.5004zm120.7576-86.24239-51.24992-51.25716 102.4998-102.5143-34.52027-34.47799-68.49068 68.49616-68.49069 68.49616 68.49069 68.49616 68.49068 68.49616 34.52027-34.47799zm136.7428-68.25716-16.98534-17.00741-34 34 33.97068 34.01482 34-34z"/>
     <path d="m731.0071-456.2688 68.47823-68.50692-33.97068-34.01482 137.4853-137.4699v-137.0154l-274.4927 274.4926z" fill="#f60"/>
     <path d="m799.8386-390.149 63.42307-65.67449 33.71635 31.29608 142.8614-141.6555-34.5379-34.50089-91.83302 92.85521-10.6083-127.3622 103.1456-102.3789 172.4213 173.0272-275.5763 273.3566z" fill="#f60"/>
     <path d="m1219.972-494.1188v-9.78161l56.1749-56.41603c30.8962-31.02909 56.1751-56.68895 56.1752-57.022 2e-4 -0.33485-22.6582-0.60449-50.3519-0.60449h-50.3522l-0.389-14.73952-0.3891-14.73954 82.5962 0.35261 82.5962 0.35262 0.4312 7.44103 0.4311 7.44103-57.9701 57.98235-57.9702 57.98206h115.5628l-0.2431 15.41394-0.2429 15.41392-88.0302 0.35262-88.0303 0.35261zm230.8132 8.05914c-0.3626-0.9482-0.4992-37.48338-0.3037-81.19023l0.3557-79.46687h168.5247v27.40249l-65.0808 0.35262-65.0806 0.35261 0.4204 17.09404 0.4205 17.09404 37.2578 0.36446 37.2578 0.36447 0.3905 14.04378 0.3907 14.04379h-75.3085l-0.4147 19.30038c-0.2283 10.61513-0.1571 19.55521 0.157 19.86664 0.3141 0.31113 30.0177 0.56596 66.0082 0.56596h65.437l-0.2372 15.41394-0.237 15.41394-84.6439 0.35261c-66.9856 0.26668-84.7802-7e-3 -85.3018-1.36897zm231.8678 0.82671c-0.5215-0.52151-0.9512-37.23417-0.9512-81.58106v-80.63108l75.0569 0.0593c79.7243 0.0593 84.4561 0.41187 93.2819 6.6952 2.2341 1.5912 5.5013 5.81604 7.2614 9.39048 2.9335 5.95649 3.2381 8.58005 3.6515 31.46494 0.6282 34.85301-2.0149 43.16401-15.8703 49.87552-5.4125 2.62237-9.3161 3.24373-23.2867 3.71014-9.231 0.30816-16.7464 0.9482-16.7008 1.4223 0.03 0.47411 16.0762 13.70332 35.6234 29.39816 19.547 15.69456 35.5399 29.10452 35.5399 29.79996 0 0.72894-11.2867 1.26527-26.662 1.26527h-26.6618l-33.281-30.83677-33.2808-30.83706-35.0965 0.70523-0.2667 30.1428-0.2667 30.14249-18.5739 0.37929c-10.2156 0.20743-19.0013-0.0593-19.524-0.57189zm136.8091-92.91446c3.1662-3.16612 3.363-4.2518 3.363-18.55873 0-14.30719-0.2075-15.39259-3.363-18.55899l-3.3631-3.36317h-94.6627v43.84404h94.6627zm129.7425 91.71024c-4.7176-1.02525-10.4303-3.1824-12.6945-4.79465-10.0929-7.18679-11.2077-15.6335-10.6732-80.86132 0.412-50.221 0.569-52.99065 3.3161-58.86625 3.3735-7.21227 6.1776-9.95406 13.6079-13.30627 4.96-2.23716 11.8102-2.48607 79.0915-2.85941 47.3719-0.26669 76.4379 0.11851 81.4424 1.03117 17.891 3.30745 22.7915 9.44529 25.1972 31.55888 1.8431 16.93077 0.8654 100.7757-1.2652 108.8366-2.9246 11.0534-9.8343 16.86974-23.0887 19.43433-13.5457 2.62237-142.7334 2.47718-154.9324-0.17779zm140.794-80.12646v-50.69452h-124.6147l-0.3763 50.12471c-0.2075 27.56872-0.1179 50.38102 0.2074 50.69452 0.314 0.31409 28.5214 0.56892 62.683 0.56892h62.1121zm232.2355 81.28979c-9.0578-1.29193-17.1157-4.87407-21.0555-9.36114-6.777-7.71867-7.2899-13.40731-6.7954-75.35404 0.409-51.21009 0.6756-56.69101 3.0019-62.01547 3.1843-7.28309 7.8612-10.67618 18.4583-13.39101 7.076-1.81344 18.6071-2.05345 79.267-1.66231 75.5709 0.48891 77.5037 0.65485 84.659 7.28664 4.3141 3.99786 7.5941 15.1363 8.5458 29.02125l0.7734 11.30349h-38.7496v-17.81172h-117.8303v101.4181l59.0098-0.35557 59.0102-0.35855 3e-4 -17.12663 6e-4 -17.12633-30.9708-0.36742-30.9703-0.36744 0.3911-14.01801 0.3912-14.01799h98.6487l0.3674 34.16081c0.4089 38.00369-0.6371 45.19611-7.5296 51.79918-8.784 8.41589-9.3656 8.47515-85.3208 8.71428-38.055 0.11851-71.0406-0.0593-73.3015-0.36743zm-148.6583-83.34502v-17.17048l37.336 0.36446 37.3357 0.36447v32.88281l-37.3357 0.36447-37.336 0.36446z" stroke-width="7.83995"/>
    </g>
   </g>
  </g>
 </g>
</svg>
